<?xml version="1.0" encoding="UTF-8" standalone="no"?>
<svg
   xmlns:dc="http://purl.org/dc/elements/1.1/"
   xmlns:cc="http://creativecommons.org/ns#"
   xmlns:rdf="http://www.w3.org/1999/02/22-rdf-syntax-ns#"
   xmlns:svg="http://www.w3.org/2000/svg"
   xmlns="http://www.w3.org/2000/svg"
   xmlns:xlink="http://www.w3.org/1999/xlink"
   xmlns:sodipodi="http://sodipodi.sourceforge.net/DTD/sodipodi-0.dtd"
   xmlns:inkscape="http://www.inkscape.org/namespaces/inkscape"
   version="1.1"
   width="258.5"
   height="196.11836"
   id="svg2"
   inkscape:version="0.48.3.1 r9886"
   sodipodi:docname="postamt.svg">
  <sodipodi:namedview
     pagecolor="#ffffff"
     bordercolor="#666666"
     borderopacity="1"
     objecttolerance="10"
     gridtolerance="10"
     guidetolerance="10"
     inkscape:pageopacity="0"
     inkscape:pageshadow="2"
     inkscape:window-width="1918"
     inkscape:window-height="1078"
     id="namedview47"
     showgrid="false"
     inkscape:zoom="1"
     inkscape:cx="-623.48874"
     inkscape:cy="-18.617257"
     inkscape:window-x="0"
     inkscape:window-y="0"
     inkscape:window-maximized="0"
     inkscape:current-layer="svg2"
     fit-margin-top="0"
     fit-margin-left="0"
     fit-margin-right="0"
     fit-margin-bottom="0" />
  <metadata
     id="metadata49">
    <rdf:RDF>
      <cc:Work
         rdf:about="">
        <dc:format>image/svg+xml</dc:format>
        <dc:type
           rdf:resource="http://purl.org/dc/dcmitype/StillImage" />
        <dc:title>Horn der deutschen Bundespost 1950-1994</dc:title>
      </cc:Work>
    </rdf:RDF>
  </metadata>
  <title
     id="title4">Horn der deutschen Bundespost 1950-1994</title>
  <desc
     id="desc6">Horn der deutschen Bundespost von 1950-1994</desc>
  <defs
     id="defs8">
    <inkscape:perspective
       id="perspective51"
       inkscape:persp3d-origin="188.75 : 86.833333 : 1"
       inkscape:vp_z="377.5 : 130.25 : 1"
       inkscape:vp_y="0 : 1000 : 0"
       inkscape:vp_x="0 : 130.25 : 1"
       sodipodi:type="inkscape:persp3d" />
    <clipPath
       id="cp1">
      <rect
         id="rect11"
         height="50"
         width="92"
         y="300"
         x="400" />
    </clipPath>
    <inkscape:perspective
       sodipodi:type="inkscape:persp3d"
       inkscape:vp_x="0 : 0.5 : 1"
       inkscape:vp_y="0 : 1000 : 0"
       inkscape:vp_z="1 : 0.5 : 1"
       inkscape:persp3d-origin="0.5 : 0.33333333 : 1"
       id="perspective3458" />
    <linearGradient
       id="linearGradient28328-54-600-983-233-576-752"
       inkscape:collect="always">
      <stop
         id="stop27246"
         offset="0"
         style="stop-color: black; stop-opacity: 1;" />
      <stop
         id="stop27248"
         offset="1"
         style="stop-color: black; stop-opacity: 0;" />
    </linearGradient>
    <linearGradient
       id="linearGradient25574-333-644-454-477-758-702"
       inkscape:collect="always">
      <stop
         id="stop27216"
         offset="0"
         style="stop-color: rgb(206, 225, 75); stop-opacity: 1;" />
      <stop
         id="stop27218"
         offset="1"
         style="stop-color: rgb(206, 225, 75); stop-opacity: 0;" />
    </linearGradient>
    <linearGradient
       y2="-28.406975"
       x2="170.48444"
       y1="-23.245676"
       x1="175.58151"
       gradientUnits="userSpaceOnUse"
       id="linearGradient28862"
       xlink:href="#linearGradient22715-461-526-42-991-35-385"
       inkscape:collect="always" />
    <linearGradient
       id="linearGradient22715-461-526-42-991-35-385">
      <stop
         id="stop27132"
         offset="0"
         style="stop-color: black; stop-opacity: 1;" />
      <stop
         id="stop27134"
         offset="1"
         style="stop-color: black; stop-opacity: 0;" />
    </linearGradient>
    <linearGradient
       id="linearGradient22715-661-224-14-404-464-690">
      <stop
         id="stop27228"
         offset="0"
         style="stop-color: black; stop-opacity: 1;" />
      <stop
         id="stop27230"
         offset="1"
         style="stop-color: black; stop-opacity: 0;" />
    </linearGradient>
    <linearGradient
       id="linearGradient26491-576-783-728-368-487-83"
       inkscape:collect="always">
      <stop
         id="stop27114"
         offset="0"
         style="stop-color: rgb(206, 225, 75); stop-opacity: 1;" />
      <stop
         id="stop27116"
         offset="1"
         style="stop-color: rgb(206, 225, 75); stop-opacity: 0;" />
    </linearGradient>
    <linearGradient
       id="linearGradient26491-449-608-111-857-687-503"
       inkscape:collect="always">
      <stop
         id="stop27174"
         offset="0"
         style="stop-color: rgb(206, 225, 75); stop-opacity: 1;" />
      <stop
         id="stop27176"
         offset="1"
         style="stop-color: rgb(206, 225, 75); stop-opacity: 0;" />
    </linearGradient>
    <linearGradient
       id="linearGradient27396-872-342-58-614-84-877">
      <stop
         style="stop-color:#000000;stop-opacity:0.52100843;"
         offset="0"
         id="stop27186" />
      <stop
         style="stop-color:#000000;stop-opacity:0;"
         offset="1"
         id="stop27188" />
    </linearGradient>
    <linearGradient
       id="linearGradient27396-763-45-21-87-197-847">
      <stop
         style="stop-color:#000000;stop-opacity:0.52156866;"
         offset="0"
         id="stop27144" />
      <stop
         style="stop-color:#000000;stop-opacity:0;"
         offset="1"
         id="stop27146" />
    </linearGradient>
    <linearGradient
       y2="-39.010384"
       x2="154.72725"
       y1="-41.667519"
       x1="158.38286"
       gradientTransform="matrix(-1.7784689,-1.8993743,-1.6561234,2.043353,518.28937,406.87175)"
       gradientUnits="userSpaceOnUse"
       id="linearGradient3930"
       xlink:href="#linearGradient27396-763-45-21-87-197-847"
       inkscape:collect="always" />
    <linearGradient
       y2="-37.917454"
       x2="158.21164"
       y1="-41.196301"
       x1="156.77486"
       gradientTransform="matrix(2.6742006,-0.79471461,0.79471437,2.6742018,-19.042361,259.72457)"
       gradientUnits="userSpaceOnUse"
       id="linearGradient3933"
       xlink:href="#linearGradient27396-872-342-58-614-84-877"
       inkscape:collect="always" />
    <linearGradient
       y2="-39.309124"
       x2="156.89528"
       y1="-44.258869"
       x1="155.65526"
       gradientTransform="matrix(2.6742006,-0.79471461,0.79471437,2.6742018,-32.53969,246.28842)"
       gradientUnits="userSpaceOnUse"
       id="linearGradient3936"
       xlink:href="#linearGradient26491-449-608-111-857-687-503"
       inkscape:collect="always" />
    <linearGradient
       y2="-39.309124"
       x2="156.89528"
       y1="-44.258869"
       x1="155.65526"
       gradientTransform="matrix(2.7836442,-0.18505046,0.18505048,2.7836454,-101.72879,155.89566)"
       gradientUnits="userSpaceOnUse"
       id="linearGradient3939"
       xlink:href="#linearGradient26491-576-783-728-368-487-83"
       inkscape:collect="always" />
    <linearGradient
       y2="-28.406975"
       x2="170.48444"
       y1="-21.365633"
       x1="183.77327"
       gradientTransform="matrix(0.10283515,0.8427738,1.0868268,-0.35651936,320.17549,-104.31615)"
       gradientUnits="userSpaceOnUse"
       id="linearGradient3942"
       xlink:href="#linearGradient22715-661-224-14-404-464-690"
       inkscape:collect="always" />
    <linearGradient
       y2="-23.74445"
       x2="155.9635"
       y1="-13.226235"
       x1="153.73743"
       gradientTransform="matrix(2.7836442,-0.18505046,0.18505048,2.7836454,-101.72879,155.89566)"
       gradientUnits="userSpaceOnUse"
       id="linearGradient3953"
       xlink:href="#linearGradient25574-333-644-454-477-758-702"
       inkscape:collect="always" />
    <linearGradient
       y2="-10.629791"
       x2="172.94492"
       y1="-34.904774"
       x1="165.07835"
       gradientTransform="matrix(2.7836442,-0.18505046,0.18505048,2.7836454,-101.72879,155.89566)"
       gradientUnits="userSpaceOnUse"
       id="linearGradient3957"
       xlink:href="#linearGradient28328-54-600-983-233-576-752"
       inkscape:collect="always" />
    <linearGradient
       y2="-39.010384"
       x2="154.72725"
       y1="-41.667519"
       x1="158.38286"
       gradientTransform="matrix(-1.7784689,-1.8993743,-1.6561234,2.043353,518.28937,406.87175)"
       gradientUnits="userSpaceOnUse"
       id="linearGradient3930-592"
       xlink:href="#linearGradient27396-763-45-21-87-197-847-39"
       inkscape:collect="always" />
    <linearGradient
       id="linearGradient27396-763-45-21-87-197-847-39">
      <stop
         style="stop-color:#ffffff;stop-opacity:0.52156866;"
         offset="0"
         id="stop4329" />
      <stop
         style="stop-color:#ffffff;stop-opacity:0;"
         offset="1"
         id="stop4331" />
    </linearGradient>
    <linearGradient
       y2="-10.629791"
       x2="172.94492"
       y1="-34.904774"
       x1="165.07835"
       gradientTransform="matrix(2.7836442,-0.18505046,0.18505048,2.7836454,-101.72879,155.89566)"
       gradientUnits="userSpaceOnUse"
       id="linearGradient3957-165"
       xlink:href="#linearGradient28328-54-600-983-233-576-752-565"
       inkscape:collect="always" />
    <linearGradient
       id="linearGradient28328-54-600-983-233-576-752-565"
       inkscape:collect="always">
      <stop
         id="stop4335"
         offset="0"
         style="stop-color:#ffffff; stop-opacity: 1;" />
      <stop
         id="stop4337"
         offset="1"
         style="stop-color:#ffffff; stop-opacity: 0;" />
    </linearGradient>
    <linearGradient
       y2="-39.309124"
       x2="156.89528"
       y1="-44.258869"
       x1="155.65526"
       gradientTransform="matrix(2.7836442,-0.18505046,0.18505048,2.7836454,-101.72879,155.89566)"
       gradientUnits="userSpaceOnUse"
       id="linearGradient3939-678"
       xlink:href="#linearGradient26491-576-783-728-368-487-83-110"
       inkscape:collect="always" />
    <linearGradient
       id="linearGradient26491-576-783-728-368-487-83-110"
       inkscape:collect="always">
      <stop
         id="stop4341"
         offset="0"
         style="stop-color: rgb(206, 225, 75); stop-opacity: 1;" />
      <stop
         id="stop4343"
         offset="1"
         style="stop-color: rgb(206, 225, 75); stop-opacity: 0;" />
    </linearGradient>
    <linearGradient
       y2="-39.309124"
       x2="156.89528"
       y1="-44.258869"
       x1="155.65526"
       gradientTransform="matrix(2.6742006,-0.79471461,0.79471437,2.6742018,-32.53969,246.28842)"
       gradientUnits="userSpaceOnUse"
       id="linearGradient3936-365"
       xlink:href="#linearGradient26491-449-608-111-857-687-503-487"
       inkscape:collect="always" />
    <linearGradient
       id="linearGradient26491-449-608-111-857-687-503-487"
       inkscape:collect="always">
      <stop
         id="stop4347"
         offset="0"
         style="stop-color: rgb(206, 225, 75); stop-opacity: 1;" />
      <stop
         id="stop4349"
         offset="1"
         style="stop-color: rgb(206, 225, 75); stop-opacity: 0;" />
    </linearGradient>
    <linearGradient
       y2="-37.917454"
       x2="158.21164"
       y1="-41.196301"
       x1="156.77486"
       gradientTransform="matrix(2.6742006,-0.79471461,0.79471437,2.6742018,-19.042361,259.72457)"
       gradientUnits="userSpaceOnUse"
       id="linearGradient3933-498"
       xlink:href="#linearGradient27396-872-342-58-614-84-877-101"
       inkscape:collect="always" />
    <linearGradient
       id="linearGradient27396-872-342-58-614-84-877-101">
      <stop
         style="stop-color:#ffffff;stop-opacity:0.52100843;"
         offset="0"
         id="stop4353" />
      <stop
         style="stop-color:#ffffff;stop-opacity:0;"
         offset="1"
         id="stop4355" />
    </linearGradient>
    <linearGradient
       y2="-23.74445"
       x2="155.9635"
       y1="-13.226235"
       x1="153.73743"
       gradientTransform="matrix(2.7836442,-0.18505046,0.18505048,2.7836454,-101.72879,155.89566)"
       gradientUnits="userSpaceOnUse"
       id="linearGradient3953-38"
       xlink:href="#linearGradient25574-333-644-454-477-758-702-440"
       inkscape:collect="always" />
    <linearGradient
       id="linearGradient25574-333-644-454-477-758-702-440"
       inkscape:collect="always">
      <stop
         id="stop4359"
         offset="0"
         style="stop-color: rgb(206, 225, 75); stop-opacity: 1;" />
      <stop
         id="stop4361"
         offset="1"
         style="stop-color: rgb(206, 225, 75); stop-opacity: 0;" />
    </linearGradient>
    <linearGradient
       y2="-28.406975"
       x2="170.48444"
       y1="-23.245676"
       x1="175.58151"
       gradientUnits="userSpaceOnUse"
       id="linearGradient28862-915"
       xlink:href="#linearGradient22715-461-526-42-991-35-385-256"
       inkscape:collect="always" />
    <linearGradient
       id="linearGradient22715-461-526-42-991-35-385-256">
      <stop
         id="stop4365"
         offset="0"
         style="stop-color:#ffffff; stop-opacity: 1;" />
      <stop
         id="stop4367"
         offset="1"
         style="stop-color:#ffffff; stop-opacity: 0;" />
    </linearGradient>
    <linearGradient
       y2="-28.406975"
       x2="170.48444"
       y1="-21.365633"
       x1="183.77327"
       gradientTransform="matrix(0.10283515,0.8427738,1.0868268,-0.35651936,320.17549,-104.31615)"
       gradientUnits="userSpaceOnUse"
       id="linearGradient3942-810"
       xlink:href="#linearGradient22715-661-224-14-404-464-690-747"
       inkscape:collect="always" />
    <linearGradient
       id="linearGradient22715-661-224-14-404-464-690-747">
      <stop
         id="stop4371"
         offset="0"
         style="stop-color:#ffffff; stop-opacity: 1;" />
      <stop
         id="stop4373"
         offset="1"
         style="stop-color:#ffffff; stop-opacity: 0;" />
    </linearGradient>
    <linearGradient
       y2="-39.010384"
       x2="154.72725"
       y1="-41.667519"
       x1="158.38286"
       gradientTransform="matrix(-1.7784689,-1.8993743,-1.6561234,2.043353,518.28937,406.87175)"
       gradientUnits="userSpaceOnUse"
       id="linearGradient3930-592-421"
       xlink:href="#linearGradient27396-763-45-21-87-197-847-39-821"
       inkscape:collect="always" />
    <linearGradient
       id="linearGradient27396-763-45-21-87-197-847-39-821">
      <stop
         style="stop-color:#ffffff;stop-opacity:0.52156866;"
         offset="0"
         id="stop4941" />
      <stop
         style="stop-color:#ffffff;stop-opacity:0;"
         offset="1"
         id="stop4943" />
    </linearGradient>
    <linearGradient
       y2="-10.629791"
       x2="172.94492"
       y1="-34.904774"
       x1="165.07835"
       gradientTransform="matrix(2.7836442,-0.18505046,0.18505048,2.7836454,-101.72879,155.89566)"
       gradientUnits="userSpaceOnUse"
       id="linearGradient3957-165-48"
       xlink:href="#linearGradient28328-54-600-983-233-576-752-565-103"
       inkscape:collect="always" />
    <linearGradient
       id="linearGradient28328-54-600-983-233-576-752-565-103"
       inkscape:collect="always">
      <stop
         id="stop4947"
         offset="0"
         style="stop-color:#ffffff; stop-opacity: 1;" />
      <stop
         id="stop4949"
         offset="1"
         style="stop-color:#ffffff; stop-opacity: 0;" />
    </linearGradient>
    <linearGradient
       y2="-39.309124"
       x2="156.89528"
       y1="-44.258869"
       x1="155.65526"
       gradientTransform="matrix(2.7836442,-0.18505046,0.18505048,2.7836454,-101.72879,155.89566)"
       gradientUnits="userSpaceOnUse"
       id="linearGradient3939-678-758"
       xlink:href="#linearGradient26491-576-783-728-368-487-83-110-856"
       inkscape:collect="always" />
    <linearGradient
       id="linearGradient26491-576-783-728-368-487-83-110-856"
       inkscape:collect="always">
      <stop
         id="stop4953"
         offset="0"
         style="stop-color: rgb(206, 225, 75); stop-opacity: 1;" />
      <stop
         id="stop4955"
         offset="1"
         style="stop-color: rgb(206, 225, 75); stop-opacity: 0;" />
    </linearGradient>
    <linearGradient
       y2="-39.309124"
       x2="156.89528"
       y1="-44.258869"
       x1="155.65526"
       gradientTransform="matrix(2.6742006,-0.79471461,0.79471437,2.6742018,-32.53969,246.28842)"
       gradientUnits="userSpaceOnUse"
       id="linearGradient3936-365-380"
       xlink:href="#linearGradient26491-449-608-111-857-687-503-487-811"
       inkscape:collect="always" />
    <linearGradient
       id="linearGradient26491-449-608-111-857-687-503-487-811"
       inkscape:collect="always">
      <stop
         id="stop4959"
         offset="0"
         style="stop-color: rgb(206, 225, 75); stop-opacity: 1;" />
      <stop
         id="stop4961"
         offset="1"
         style="stop-color: rgb(206, 225, 75); stop-opacity: 0;" />
    </linearGradient>
    <linearGradient
       y2="-37.917454"
       x2="158.21164"
       y1="-41.196301"
       x1="156.77486"
       gradientTransform="matrix(2.6742006,-0.79471461,0.79471437,2.6742018,-19.042361,259.72457)"
       gradientUnits="userSpaceOnUse"
       id="linearGradient3933-498-272"
       xlink:href="#linearGradient27396-872-342-58-614-84-877-101-983"
       inkscape:collect="always" />
    <linearGradient
       id="linearGradient27396-872-342-58-614-84-877-101-983">
      <stop
         style="stop-color:#ffffff;stop-opacity:0.52100843;"
         offset="0"
         id="stop4965" />
      <stop
         style="stop-color:#ffffff;stop-opacity:0;"
         offset="1"
         id="stop4967" />
    </linearGradient>
    <linearGradient
       y2="-23.74445"
       x2="155.9635"
       y1="-13.226235"
       x1="153.73743"
       gradientTransform="matrix(2.7836442,-0.18505046,0.18505048,2.7836454,-101.72879,155.89566)"
       gradientUnits="userSpaceOnUse"
       id="linearGradient3953-38-246"
       xlink:href="#linearGradient25574-333-644-454-477-758-702-440-771"
       inkscape:collect="always" />
    <linearGradient
       id="linearGradient25574-333-644-454-477-758-702-440-771"
       inkscape:collect="always">
      <stop
         id="stop4971"
         offset="0"
         style="stop-color: rgb(206, 225, 75); stop-opacity: 1;" />
      <stop
         id="stop4973"
         offset="1"
         style="stop-color: rgb(206, 225, 75); stop-opacity: 0;" />
    </linearGradient>
    <linearGradient
       y2="-28.406975"
       x2="170.48444"
       y1="-23.245676"
       x1="175.58151"
       gradientUnits="userSpaceOnUse"
       id="linearGradient28862-915-167"
       xlink:href="#linearGradient22715-461-526-42-991-35-385-256-98"
       inkscape:collect="always" />
    <linearGradient
       id="linearGradient22715-461-526-42-991-35-385-256-98">
      <stop
         id="stop4977"
         offset="0"
         style="stop-color:#ffffff; stop-opacity: 1;" />
      <stop
         id="stop4979"
         offset="1"
         style="stop-color:#ffffff; stop-opacity: 0;" />
    </linearGradient>
    <linearGradient
       y2="-28.406975"
       x2="170.48444"
       y1="-21.365633"
       x1="183.77327"
       gradientTransform="matrix(0.10283515,0.8427738,1.0868268,-0.35651936,320.17549,-104.31615)"
       gradientUnits="userSpaceOnUse"
       id="linearGradient3942-810-420"
       xlink:href="#linearGradient22715-661-224-14-404-464-690-747-718"
       inkscape:collect="always" />
    <linearGradient
       id="linearGradient22715-661-224-14-404-464-690-747-718">
      <stop
         id="stop4983"
         offset="0"
         style="stop-color:#ffffff; stop-opacity: 1;" />
      <stop
         id="stop4985"
         offset="1"
         style="stop-color:#ffffff; stop-opacity: 0;" />
    </linearGradient>
    <linearGradient
       y2="-39.309124"
       x2="156.89528"
       y1="-44.258869"
       x1="155.65526"
       gradientTransform="matrix(2.7836442,-0.18505046,0.18505048,2.7836454,-101.72879,155.89566)"
       gradientUnits="userSpaceOnUse"
       id="linearGradient3939-678-758-878"
       xlink:href="#linearGradient26491-576-783-728-368-487-83-110-856-913"
       inkscape:collect="always" />
    <linearGradient
       id="linearGradient26491-576-783-728-368-487-83-110-856-913">
      <stop
         id="stop5295"
         offset="0"
         style="stop-color:#ffffff;stop-opacity:1;" />
      <stop
         id="stop5297"
         offset="1"
         style="stop-color:#ffffff;stop-opacity:0;" />
    </linearGradient>
    <linearGradient
       y2="-39.309124"
       x2="156.89528"
       y1="-44.258869"
       x1="155.65526"
       gradientTransform="matrix(2.6742006,-0.79471461,0.79471437,2.6742018,-32.53969,246.28842)"
       gradientUnits="userSpaceOnUse"
       id="linearGradient3936-365-380-785"
       xlink:href="#linearGradient26491-449-608-111-857-687-503-487-811-148"
       inkscape:collect="always" />
    <linearGradient
       id="linearGradient26491-449-608-111-857-687-503-487-811-148">
      <stop
         id="stop5301"
         offset="0"
         style="stop-color:#ffffff;stop-opacity:1;" />
      <stop
         id="stop5303"
         offset="1"
         style="stop-color:#ffffff;stop-opacity:0;" />
    </linearGradient>
    <linearGradient
       y2="-23.74445"
       x2="155.9635"
       y1="-13.226235"
       x1="153.73743"
       gradientTransform="matrix(2.7836442,-0.18505046,0.18505048,2.7836454,-167.23725,158.58043)"
       gradientUnits="userSpaceOnUse"
       id="linearGradient3953-38-246-801"
       xlink:href="#linearGradient25574-333-644-454-477-758-702-440-771-333"
       inkscape:collect="always" />
    <linearGradient
       id="linearGradient25574-333-644-454-477-758-702-440-771-333">
      <stop
         id="stop5307"
         offset="0"
         style="stop-color:#ffffff;stop-opacity:1;" />
      <stop
         id="stop5309"
         offset="1"
         style="stop-color:#ffffff;stop-opacity:0;" />
    </linearGradient>
    <linearGradient
       inkscape:collect="always"
       xlink:href="#linearGradient22715-661-224-14-404-464-690-747-718"
       id="linearGradient6310"
       gradientUnits="userSpaceOnUse"
       gradientTransform="matrix(0.10283515,0.8427738,1.0868268,-0.35651936,320.17549,-104.31615)"
       x1="183.77327"
       y1="-21.365633"
       x2="170.48444"
       y2="-28.406975" />
    <linearGradient
       inkscape:collect="always"
       xlink:href="#linearGradient27396-763-45-21-87-197-847-39-821"
       id="linearGradient6312"
       gradientUnits="userSpaceOnUse"
       gradientTransform="matrix(-1.7784689,-1.8993743,-1.6561234,2.043353,518.28937,406.87175)"
       x1="158.38286"
       y1="-41.667519"
       x2="154.72725"
       y2="-39.010384" />
    <linearGradient
       inkscape:collect="always"
       xlink:href="#linearGradient22715-661-224-14-404-464-690-747-718"
       id="linearGradient6314"
       gradientUnits="userSpaceOnUse"
       gradientTransform="matrix(0.10283515,0.8427738,1.0868268,-0.35651936,320.17549,-104.31615)"
       x1="183.77327"
       y1="-21.365633"
       x2="170.48444"
       y2="-28.406975" />
    <linearGradient
       inkscape:collect="always"
       xlink:href="#linearGradient27396-763-45-21-87-197-847-39-821"
       id="linearGradient6316"
       gradientUnits="userSpaceOnUse"
       gradientTransform="matrix(-1.7784689,-1.8993743,-1.6561234,2.043353,518.28937,406.87175)"
       x1="158.38286"
       y1="-41.667519"
       x2="154.72725"
       y2="-39.010384" />
    <linearGradient
       inkscape:collect="always"
       xlink:href="#linearGradient22715-661-224-14-404-464-690-747-718"
       id="linearGradient6327"
       gradientUnits="userSpaceOnUse"
       gradientTransform="matrix(0.10283515,0.8427738,1.0868268,-0.35651936,320.17549,-104.31615)"
       x1="183.77327"
       y1="-21.365633"
       x2="170.48444"
       y2="-28.406975" />
    <linearGradient
       inkscape:collect="always"
       xlink:href="#linearGradient27396-763-45-21-87-197-847-39-821"
       id="linearGradient6329"
       gradientUnits="userSpaceOnUse"
       gradientTransform="matrix(-1.7784689,-1.8993743,-1.6561234,2.043353,518.28937,406.87175)"
       x1="158.38286"
       y1="-41.667519"
       x2="154.72725"
       y2="-39.010384" />
    <linearGradient
       inkscape:collect="always"
       xlink:href="#linearGradient27396-763-45-21-87-197-847-39-821"
       id="linearGradient6333"
       gradientUnits="userSpaceOnUse"
       gradientTransform="matrix(1.0010051,-2.5342983,-2.8933502,-0.57302706,106.41192,413.10101)"
       x1="158.38286"
       y1="-41.667519"
       x2="154.72725"
       y2="-39.010384" />
    <linearGradient
       inkscape:collect="always"
       xlink:href="#linearGradient22715-661-224-14-404-464-690-747-718"
       id="linearGradient6336"
       gradientUnits="userSpaceOnUse"
       gradientTransform="matrix(-0.79341006,0.49011297,0.91085991,0.83750368,518.58076,-9.6511872)"
       x1="183.77327"
       y1="-21.365633"
       x2="170.48444"
       y2="-28.406975" />
    <linearGradient
       inkscape:collect="always"
       xlink:href="#linearGradient22715-661-224-14-404-464-690-747-718"
       id="linearGradient6340"
       gradientUnits="userSpaceOnUse"
       gradientTransform="matrix(0.10283515,0.8427738,1.0868268,-0.35651936,320.17549,-104.31615)"
       x1="183.77327"
       y1="-21.365633"
       x2="170.48444"
       y2="-28.406975" />
    <linearGradient
       inkscape:collect="always"
       xlink:href="#linearGradient27396-763-45-21-87-197-847-39-821"
       id="linearGradient6342"
       gradientUnits="userSpaceOnUse"
       gradientTransform="matrix(-1.7784689,-1.8993743,-1.6561234,2.043353,518.28937,406.87175)"
       x1="158.38286"
       y1="-41.667519"
       x2="154.72725"
       y2="-39.010384" />
    <linearGradient
       inkscape:collect="always"
       xlink:href="#linearGradient27396-763-45-21-87-197-847-39-821"
       id="linearGradient6346"
       gradientUnits="userSpaceOnUse"
       gradientTransform="matrix(-1.7784689,-1.8993743,-1.6561234,2.043353,518.28937,406.87175)"
       x1="158.38286"
       y1="-41.667519"
       x2="154.72725"
       y2="-39.010384" />
    <linearGradient
       inkscape:collect="always"
       xlink:href="#linearGradient22715-661-224-14-404-464-690-747-718"
       id="linearGradient6349"
       gradientUnits="userSpaceOnUse"
       gradientTransform="matrix(0.10283515,0.8427738,1.0868268,-0.35651936,320.17549,-104.31615)"
       x1="183.77327"
       y1="-21.365633"
       x2="170.48444"
       y2="-28.406975" />
  </defs>
  <g
     style="fill:#ffffff;stroke:#000000;stroke-width:4;stroke-linecap:round"
     transform="translate(-331.61888,-47.544125)"
     id="Horn" />
  <g
     id="g3144"
     transform="scale(0.68476821,0.68476821)">
    <path
       inkscape:connector-curvature="0"
       d="m 181.5,27.901085 c -45.816,0 -83,37.184004 -83,83.000005 0,45.816 37.184,83 83,83 45.816,0 83,-37.184 83,-83 0,-45.816001 -37.184,-83.000005 -83,-83.000005 z m 0,23 c 33.12,0 60,26.880004 60,60.000005 0,33.12 -26.88,60 -60,60 -33.12,0 -60,-26.88 -60,-60 0,-33.120001 26.88,-60.000005 60,-60.000005 z"
       id="path3743"
       style="fill:#ffffff;stroke:#000000;stroke-width:4;stroke-linecap:round" />
    <path
       sodipodi:nodetypes="csccsc"
       style="fill:#ffffff;stroke:#000000;stroke-width:4;stroke-linecap:round"
       id="path6448"
       d="m 264.5,110.90109 c 0,-45.816001 -37.184,-83.000005 -83,-83.000005 -45.816,0 -83,37.184004 -83,83.000005 m 23,0 c 0,-33.120001 26.88,-60.000005 60,-60.000005 33.12,0 60,26.880004 60,60.000005"
       inkscape:connector-curvature="0" />
    <path
       sodipodi:nodetypes="ccccc"
       id="path28808"
       d="m 165.67184,60.963059 c 34.94607,63.095481 -8.37691,74.575461 -11.37875,116.707701 l 48.73448,-9.89386 c 20.20871,-27.6827 23.40087,-64.65418 12.63266,-121.61894 -15.12267,4.387175 -34.86572,10.417919 -49.98839,14.805099 z"
       style="fill:#ffffff;fill-opacity:1;stroke:#000000;stroke-width:2.9092896px;stroke-linecap:butt;stroke-linejoin:miter;stroke-opacity:1"
       inkscape:connector-curvature="0" />
    <path
       inkscape:connector-curvature="0"
       style="fill:#000000;fill-opacity:1;stroke:#ffffff;stroke-width:2.65163541px;stroke-linecap:butt;stroke-linejoin:miter;stroke-opacity:1"
       d="m 169.66987,66.418959 c 31.21136,58.686411 -7.48166,69.364181 -10.1627,108.552251 l 43.5262,-9.20249 c 18.049,-25.74825 20.90001,-60.13618 11.2826,-113.120285 -13.5065,4.080604 -31.1396,9.689914 -44.6461,13.770524 z"
       id="path6520"
       sodipodi:nodetypes="ccccc" />
    <path
       inkscape:connector-curvature="0"
       d="m 146.5,166.90109 c -30,-19 -40,-59 -22,-90.000001 m 122,0 c 17,36.000001 4,79.000001 -32,98.000001"
       id="path3745"
       style="fill:none;stroke:#000000;stroke-width:3;stroke-linecap:round" />
    <path
       inkscape:connector-curvature="0"
       d="m 18,68.901089 -16,12.5 2.5,7.5 18.5,16.000001 10.5,-9.000001 -9,-23 z m -13.5,20 20,-16"
       id="path3747"
       style="fill:#ffffff;stroke:#000000;stroke-width:4;stroke-linecap:round" />
    <path
       inkscape:connector-curvature="0"
       d="m 9.5,92.901089 10,-8"
       id="path3749"
       style="fill:#ffffff;stroke:#000000;stroke-width:3;stroke-linecap:round" />
    <path
       inkscape:connector-curvature="0"
       d="m 34.5,94.901089 c 84,106.000001 178,111.000001 249,24.000001 l 0,-63.000005 92,47.000005 -51,37 c -103,95 -209,92 -303,-34 z"
       id="path3751"
       style="fill:#ffffff;stroke:#000000;stroke-width:4;stroke-linecap:round" />
    <path
       inkscape:connector-curvature="0"
       d="m 234.5,180.90109 c -6,2 -6,5 1,3 56,-18 79,-59 111,-95.000001 l -15,-7 c -19,33.000001 -45,81.000001 -97,99.000001 z"
       id="path3753"
       style="fill:#000000;stroke:none" />
    <path
       inkscape:connector-curvature="0"
       d="m 282.5,74.901089 79,40.000001 6,0 1,-5 -86,-44.000001 -4,4 z m 0,43.000001 42,22 8,0 -1,-6 -47,-24 -5,2 z m -243,-17 -13.1,11.5 -0.4,5.5 5.5,1 13.5,-11.5 0,-5.5 z"
       id="path3755"
       style="fill:#ffffff;stroke:#000000;stroke-width:4;stroke-linecap:round" />
    <path
       sodipodi:nodetypes="csccsc"
       inkscape:connector-curvature="0"
       d="m 98.5,110.90109 c 0,45.816 37.184,83 83,83 45.816,0 83,-37.184 83,-83 m -23,0 c 0,33.12 -26.88,60 -60,60 -33.12,0 -60,-26.88 -60,-60"
       id="use3757"
       style="fill:#ffffff;stroke:#000000;stroke-width:4;stroke-linecap:round" />
    <g
       transform="translate(-310.5,-146.09891)"
       id="g3759"
       style="fill:#ffffff;stroke:#000000;stroke-width:3;stroke-linecap:round">
      <g
         id="g3761">
        <rect
           width="10"
           height="45"
           rx="5"
           transform="matrix(0.9781476,0.20791169,-0.20791169,0.9781476,457.83526,303.82869)"
           id="rect3763"
           ry="5"
           x="0"
           y="0" />
        <rect
           style="stroke-width:3"
           width="10"
           height="45"
           rx="5"
           transform="matrix(0.9781476,0.20791169,-0.20791169,0.9781476,0,0)"
           id="use3765"
           ry="5"
           x="521.40521"
           y="202.85533" />
        <rect
           style="stroke-width:3"
           width="10"
           height="45"
           rx="5"
           transform="matrix(0.9781476,0.20791169,-0.20791169,0.9781476,0,0)"
           id="use3767"
           ry="5"
           x="531.81042"
           y="203.71065" />
        <rect
           width="10"
           height="60"
           rx="5"
           transform="matrix(0.9781476,0.20791169,-0.20791169,0.9781476,488.36575,309.2958)"
           id="rect3769"
           ry="5"
           x="0"
           y="0" />
        <path
           inkscape:connector-curvature="0"
           d="m 469,383 12,4 4,-14 c 2,-10 -9,-14 -12,-4 z m 7,1 2,-8"
           id="path3771" />
        <path
           inkscape:connector-curvature="0"
           d="m 448,423 25,8 9,-27 c 6,-20 -17,-29 -24,-10 z m 8,2 10,-30 m -3,32 10,-30"
           id="path3773" />
        <path
           inkscape:connector-curvature="0"
           d="m 428,348 -38,0 14,17 -28,0 16,18 -25,0 0,-5 -13,10 13,8 0,-6 45,0 -15,-17 30,0 -16,-17 23,0 -6,-8 z m 24,12 -22,20 8,3 -18,13 11,5 -13,11 -5,-4 -2,17 19,-3 -6,-5 22,-18 -11,-5 19,-14 -10,-4 15,-13 z"
           id="path3775" />
      </g>
      <g
         transform="matrix(-1,0,0,1,984,0)"
         id="use3777">
        <rect
           width="10"
           height="45"
           rx="5"
           transform="matrix(0.9781476,0.20791169,-0.20791169,0.9781476,457.83526,303.82869)"
           id="rect3803"
           ry="5"
           x="0"
           y="0" />
        <rect
           style="stroke-width:3"
           width="10"
           height="45"
           rx="5"
           transform="matrix(0.9781476,0.20791169,-0.20791169,0.9781476,0,0)"
           id="use3805"
           ry="5"
           x="521.40521"
           y="202.85533" />
        <rect
           style="stroke-width:3"
           width="10"
           height="45"
           rx="5"
           transform="matrix(0.9781476,0.20791169,-0.20791169,0.9781476,0,0)"
           id="use3807"
           ry="5"
           x="531.81042"
           y="203.71065" />
        <rect
           width="10"
           height="60"
           rx="5"
           transform="matrix(0.9781476,0.20791169,-0.20791169,0.9781476,488.36575,309.2958)"
           id="rect3809"
           ry="5"
           x="0"
           y="0" />
        <path
           inkscape:connector-curvature="0"
           d="m 469,383 12,4 4,-14 c 2,-10 -9,-14 -12,-4 z m 7,1 2,-8"
           id="path3811" />
        <path
           inkscape:connector-curvature="0"
           d="m 448,423 25,8 9,-27 c 6,-20 -17,-29 -24,-10 z m 8,2 10,-30 m -3,32 10,-30"
           id="path3813" />
        <path
           inkscape:connector-curvature="0"
           d="m 428,348 -38,0 14,17 -28,0 16,18 -25,0 0,-5 -13,10 13,8 0,-6 45,0 -15,-17 30,0 -16,-17 23,0 -6,-8 z m 24,12 -22,20 8,3 -18,13 11,5 -13,11 -5,-4 -2,17 19,-3 -6,-5 22,-18 -11,-5 19,-14 -10,-4 15,-13 z"
           id="path3815" />
      </g>
    </g>
    <path
       inkscape:connector-curvature="0"
       style="fill:#ffffff;fill-opacity:1;fill-rule:evenodd;stroke:#000000;stroke-width:4.39219284px;stroke-linecap:butt;stroke-linejoin:miter;stroke-opacity:1"
       d="m 154.918,87.494049 c -29.54061,15.266201 -36.23269,32.295631 -38.7512,58.433251 6.83173,-7.33543 8.44415,-14.36128 15.27589,-21.69673 0.97774,7.91173 6.55645,15.03077 15.88453,25.56576 -5.99563,-46.59643 8.72059,-41.92522 16.94678,-61.817741 -3.11868,-0.16149 -6.23731,-0.32302 -9.356,-0.48454 z"
       id="path6522"
       sodipodi:nodetypes="cccccc" />
    <path
       sodipodi:nodetypes="cccccc"
       id="path28816"
       d="m 149.94394,90.870809 c -22.59578,13.053141 -27.71459,27.613901 -29.64102,49.962501 5.22564,-6.27206 6.45899,-12.27941 11.68463,-18.55148 0.74788,6.76482 5.01506,12.85184 12.15016,21.85963 -4.58609,-39.84159 6.67043,-35.84753 12.96269,-52.856351 -2.3855,-0.13808 -4.77096,-0.2762 -7.15646,-0.4143 z"
       style="fill:#000000;fill-opacity:1;fill-rule:evenodd;stroke:#ffffff;stroke-width:3.55203557px;stroke-linecap:butt;stroke-linejoin:miter;stroke-opacity:1"
       inkscape:connector-curvature="0" />
    <path
       sodipodi:nodetypes="csccssscc"
       id="path28818"
       d="m 160.29287,1.5803891 c -16.89795,1.123345 -31.29601,14.3818549 -28.74433,29.0881239 5.06894,29.214036 -13.87288,52.980796 10.53803,57.653296 9.33509,3.02744 28.08719,3.62873 32.38103,1.12147 28.90697,8.24108 24.40149,-23.68637 30.73822,-24.10762 16.89795,-1.12334 20.78928,-24.708314 19.81827,-39.315048 -0.65556,-9.861395 -7.49031,-18.0731329 -17.06184,-22.0222019 -4.60585,-1.9003 -9.8454,-2.813566 -15.33511,-2.448618 -25.62376,6.789576 -20.37209,-0.0466 -32.33427,0.03057 z"
       style="fill:#ffffff;fill-opacity:1;fill-rule:nonzero;stroke:#000000;stroke-width:2.94154859;stroke-linecap:butt;stroke-linejoin:miter;stroke-miterlimit:4;stroke-opacity:1;stroke-dasharray:none;stroke-dashoffset:0;marker:none;visibility:visible;display:block;overflow:visible"
       inkscape:connector-curvature="0" />
    <path
       inkscape:connector-curvature="0"
       style="fill:#000000;fill-opacity:1;fill-rule:nonzero;stroke:#ffffff;stroke-width:2.81368709;stroke-linecap:butt;stroke-linejoin:miter;stroke-miterlimit:4;stroke-opacity:1;stroke-dasharray:none;stroke-dashoffset:0;marker:none;visibility:visible;display:block;overflow:visible"
       d="m 161.02869,3.5216001 c -16.16344,1.074516 -29.93566,13.7567129 -27.49489,27.8237389 4.84861,27.94418 -13.26986,50.67786 10.07997,55.14726 8.92932,2.89584 26.86631,3.471 30.97351,1.07272 27.65046,7.88286 23.34082,-22.65679 29.40211,-23.05973 16.16344,-1.07451 19.88562,-23.634303 18.95682,-37.60612 -0.62706,-9.432746 -7.16473,-17.2875409 -16.32021,-21.0649539 -4.40564,-1.817699 -9.41744,-2.691268 -14.66853,-2.342183 -24.50996,6.494451 -19.48657,-0.04458 -30.92878,0.02924 z"
       id="path6518"
       sodipodi:nodetypes="csccssscc" />
    <path
       sodipodi:type="arc"
       style="fill:#ffffff;fill-opacity:1;fill-rule:evenodd;stroke:#000000;stroke-width:1.13036001;stroke-linecap:butt;stroke-linejoin:miter;stroke-miterlimit:4;stroke-opacity:1;stroke-dasharray:none;stroke-dashoffset:0;marker:none;visibility:visible;display:inline;overflow:visible"
       id="path28834"
       sodipodi:cx="168.5625"
       sodipodi:cy="-30.875"
       sodipodi:rx="4.9375"
       sodipodi:ry="5.25"
       d="m 173.5,-30.875 c 0,2.899495 -2.21059,5.25 -4.9375,5.25 -2.72691,0 -4.9375,-2.350505 -4.9375,-5.25 0,-2.899495 2.21059,-5.25 4.9375,-5.25 2.72691,0 4.9375,2.350505 4.9375,5.25 z"
       transform="matrix(-0.94937881,-3.3274006,-1.413752,0.40720956,251.04777,616.38445)" />
    <path
       transform="matrix(3.9934717,-1.3166441,1.3166436,3.9934733,-25.306176,13.175775)"
       d="m 34.53125,18.669716 c 0,0.604061 -0.244844,1.09375 -0.546875,1.09375 -0.302031,0 -0.546875,-0.489689 -0.546875,-1.09375 0,-0.604062 0.244844,-1.09375 0.546875,-1.09375 0.302031,0 0.546875,0.489688 0.546875,1.09375 z"
       sodipodi:ry="1.09375"
       sodipodi:rx="0.546875"
       sodipodi:cy="18.669716"
       sodipodi:cx="33.984375"
       id="path28850"
       style="fill:#000000;fill-opacity:1;stroke:none;display:inline"
       sodipodi:type="arc" />
    <path
       transform="matrix(2.8559848,-2.4373133,-1.1281005,-1.1159405,-317.48646,422.19888)"
       d="m 173.5,-30.875 c 0,2.899495 -2.21059,5.25 -4.9375,5.25 -2.72691,0 -4.9375,-2.350505 -4.9375,-5.25 0,-2.899495 2.21059,-5.25 4.9375,-5.25 2.72691,0 4.9375,2.350505 4.9375,5.25 z"
       sodipodi:ry="5.25"
       sodipodi:rx="4.9375"
       sodipodi:cy="-30.875"
       sodipodi:cx="168.5625"
       id="path6300"
       style="fill:#ffffff;fill-opacity:1;fill-rule:evenodd;stroke:#000000;stroke-width:1.13036001;stroke-linecap:butt;stroke-linejoin:miter;stroke-miterlimit:4;stroke-opacity:1;stroke-dasharray:none;stroke-dashoffset:0;marker:none;visibility:visible;display:inline;overflow:visible"
       sodipodi:type="arc" />
    <path
       sodipodi:type="arc"
       style="fill:#000000;fill-opacity:1;stroke:none;display:inline"
       id="path6308"
       sodipodi:cx="33.984375"
       sodipodi:cy="18.669716"
       sodipodi:rx="0.546875"
       sodipodi:ry="1.09375"
       d="m 34.53125,18.669716 c 0,0.604061 -0.244844,1.09375 -0.546875,1.09375 -0.302031,0 -0.546875,-0.489689 -0.546875,-1.09375 0,-0.604062 0.244844,-1.09375 0.546875,-1.09375 0.302031,0 0.546875,0.489688 0.546875,1.09375 z"
       transform="matrix(3.3535544,3.0742392,-3.3375033,3.089026,147.21106,-116.01104)" />
  </g>
</svg>
